HIERARCHY
ROOT Hips
{
	OFFSET -21.947001 39.810204 44.525997
	CHANNELS 6 Xposition Yposition Zposition Zrotation Xrotation Yrotation
	JOINT Chest
	{
		OFFSET -0.201599 0.334099 6.453201
		CHANNELS 6 Xposition Yposition Zposition Zrotation Xrotation Yrotation
		JOINT Chest2
		{
			OFFSET 0.000000 0.000000 3.568001
			CHANNELS 6 Xposition Yposition Zposition Zrotation Xrotation Yrotation
			JOINT Neck
			{
				OFFSET 0.000000 0.000000 8.296402
				CHANNELS 6 Xposition Yposition Zposition Zrotation Xrotation Yrotation
				JOINT Head
				{
					OFFSET 0.000000 0.000000 2.173901
					CHANNELS 6 Xposition Yposition Zposition Zrotation Xrotation Yrotation
					End Site
					{
						OFFSET 0.000000 0.000000 7.891998
					}
				}
			}
			JOINT LeftCollar
			{
				OFFSET 1.927601 0.221401 6.049000
				CHANNELS 6 Xposition Yposition Zposition Zrotation Xrotation Yrotation
				JOINT LeftShoulder
				{
					OFFSET 4.959700 0.000000 0.000000
					CHANNELS 6 Xposition Yposition Zposition Zrotation Xrotation Yrotation
					JOINT LeftElbow
					{
						OFFSET 0.000000 0.000000 -8.654202
						CHANNELS 6 Xposition Yposition Zposition Zrotation Xrotation Yrotation
						JOINT LeftWrist
						{
							OFFSET 0.000000 0.000000 -13.864101
							CHANNELS 6 Xposition Yposition Zposition Zrotation Xrotation Yrotation
							End Site
							{
								OFFSET 0.000000 0.000000 -2.173901
							}
						}
					}
				}
			}
			JOINT RightCollar
			{
				OFFSET -3.155701 -0.764999 6.687801
				CHANNELS 6 Xposition Yposition Zposition Zrotation Xrotation Yrotation
				JOINT RightShoulder
				{
					OFFSET -3.592899 0.000000 0.000000
					CHANNELS 6 Xposition Yposition Zposition Zrotation Xrotation Yrotation
					JOINT RightElbow
					{
						OFFSET 0.000000 0.000000 -10.352398
						CHANNELS 6 Xposition Yposition Zposition Zrotation Xrotation Yrotation
						JOINT RightWrist
						{
							OFFSET 0.000000 0.000000 -12.750301
							CHANNELS 6 Xposition Yposition Zposition Zrotation Xrotation Yrotation
							End Site
							{
								OFFSET 0.000000 0.000000 -2.173901
							}
						}
					}
				}
			}
		}
	}
	JOINT LeftHip
	{
		OFFSET 2.460600 -0.518101 -2.735500
		CHANNELS 6 Xposition Yposition Zposition Zrotation Xrotation Yrotation
		JOINT LeftKnee
		{
			OFFSET 0.000000 -0.000004 -17.005899
			CHANNELS 6 Xposition Yposition Zposition Zrotation Xrotation Yrotation
			JOINT LeftAnkle
			{
				OFFSET 0.000000 0.000000 -19.194401
				CHANNELS 6 Xposition Yposition Zposition Zrotation Xrotation Yrotation
				End Site
				{
					OFFSET 0.000000 -8.134600 0.000000
				}
			}
		}
	}
	JOINT RightHip
	{
		OFFSET -3.115499 -0.679600 -2.320301
		CHANNELS 6 Xposition Yposition Zposition Zrotation Xrotation Yrotation
		JOINT RightKnee
		{
			OFFSET 0.000000 -0.000004 -17.680401
			CHANNELS 6 Xposition Yposition Zposition Zrotation Xrotation Yrotation
			JOINT RightAnkle
			{
				OFFSET 0.000000 0.000000 -16.993797
				CHANNELS 6 Xposition Yposition Zposition Zrotation Xrotation Yrotation
				End Site
				{
					OFFSET 0.000000 -8.842300 0.000000
				}
			}
		}
	}
}
MOTION
Frames: 8
Frame Time: 0.041667
-35.572697 28.723804 46.068398 2507.372061 2.227753 0.744953 -0.201602 0.334099 6.453206 -24.614818 14.681280 9.765660 0.000003 0.000001 3.567997 2.812529 -2.251984 -0.007544 0.000001 0.000005 8.296397 186.667540 -183.869102 170.510987 0.000000 -0.000000 2.173910 0.893426 0.190138 0.545499 1.927597 0.221407 6.049000 -29.752874 6.937263 2.996376 4.959702 0.000000 -0.000007 138.123022 202.703772 119.152937 -0.000002 0.000010 -8.654202 57.895347 -18.526255 24.235898 -0.000000 -0.000003 -13.864101 4057.585673 -163.194570 131.892210 -3.155707 -0.764995 6.687800 33.376519 1.143159 -3.478179 -3.592903 0.000003 0.000006 -200.323397 156.301694 255.333590 -0.000005 -0.000007 -10.352401 -335.394636 -36.192933 -331.796875 0.000014 0.000002 -12.750299 12.131496 179.927277 -181.567260 2.460600 -0.518099 -2.735499 11.305070 -14.083336 -6.092028 -0.000002 -0.000002 -17.005896 -215.032018 154.412928 -164.209741 -0.000007 0.000004 -19.194397 553.158989 152.155591 179.612160 -3.115496 -0.679596 -2.320298 -14.179419 -13.208206 -2.605046 0.000003 0.000007 -17.680397 -821.418876 149.985149 -207.671943 0.000006 -0.000007 -16.993793 1037.220397 22.588224 -373.654214
-35.628201 29.008408 45.867290 2508.873610 2.667048 0.836802 -0.201608 0.334104 6.453207 -25.299448 14.474788 9.877419 0.000004 -0.000008 3.567996 2.760776 -2.240860 -0.015718 0.000008 0.000001 8.296398 186.985759 -183.590130 170.157279 -0.000003 0.000001 2.173905 0.957572 0.103926 0.532938 1.927604 0.221403 6.048994 -29.895308 7.127842 2.620234 4.959703 -0.000005 -0.000001 138.375357 202.284945 120.284836 0.000000 0.000003 -8.654203 54.870048 -17.783775 23.247392 0.000008 0.000001 -13.864100 4059.782699 -163.236562 133.774774 -3.155701 -0.765000 6.687801 32.867867 0.596453 -3.557024 -3.592898 0.000007 0.000004 -201.282465 154.400374 255.175649 -0.000001 -0.000006 -10.352393 -331.303025 -38.424609 -328.675615 0.000007 -0.000007 -12.750300 10.062655 179.471485 -175.315779 2.460593 -0.518095 -2.735505 12.307503 -15.747626 -6.602360 -0.000002 0.000001 -17.005896 -219.431589 153.578142 -162.520458 -0.000003 0.000007 -19.194397 554.532294 154.493825 181.034560 -3.115501 -0.679589 -2.320297 -15.015017 -14.077004 -3.309911 -0.000012 -0.000002 -17.680393 -819.207152 150.234546 -209.166907 -0.000001 -0.000001 -16.993792 1034.373793 21.411827 -375.226168
-35.667397 29.296406 45.657597 2510.453405 2.962691 0.856629 -0.201601 0.334095 6.453199 -26.370208 14.340534 10.080134 -0.000001 -0.000000 3.567998 2.754186 -2.223966 -0.016489 0.000000 -0.000000 8.296406 187.514688 -183.333438 169.857338 -0.000002 -0.000001 2.173906 1.105010 0.046614 0.539401 1.927601 0.221401 6.049001 -30.072753 7.365480 2.523675 4.959705 -0.000005 0.000010 138.569116 201.673780 120.968770 -0.000007 0.000000 -8.654198 51.880170 -16.762345 22.203186 0.000003 -0.000004 -13.864103 4061.727937 -163.267462 136.077695 -3.155706 -0.765003 6.687805 32.625392 0.512282 -3.398173 -3.592905 0.000005 -0.000004 -201.939775 152.878717 254.843374 -0.000009 0.000001 -10.352390 -327.370530 -40.672943 -325.255876 0.000010 -0.000004 -12.750297 6.937800 179.208004 -167.940773 2.460594 -0.518103 -2.735498 12.539704 -17.169231 -7.139779 -0.000003 -0.000006 -17.005894 -223.803060 152.695258 -160.590916 -0.000007 0.000003 -19.194399 557.676258 156.532786 183.009728 -3.115497 -0.679595 -2.320297 -16.404021 -14.987851 -4.042672 -0.000006 -0.000001 -17.680395 -815.940026 150.730814 -211.045332 0.000005 -0.000003 -16.993795 1031.042955 20.318308 -377.135206
-35.698196 29.572401 45.440697 2511.700762 3.360664 0.999826 -0.201601 0.334099 6.453204 -27.313843 14.103850 10.107988 0.000006 0.000003 3.567998 2.859483 -2.356780 -0.026873 0.000000 0.000000 8.296400 188.089012 -183.265477 169.630849 -0.000000 0.000001 2.173901 1.246514 0.023852 0.618127 1.927595 0.221406 6.048997 -30.840599 7.987474 3.262659 4.959707 -0.000001 -0.000002 138.938369 200.829910 120.744767 -0.000004 0.000001 -8.654198 47.875087 -15.823673 20.685697 0.000000 -0.000002 -13.864100 4064.848186 -163.350886 139.798399 -3.155713 -0.764998 6.687802 33.069891 1.263622 -4.248700 -3.592907 -0.000002 0.000002 -203.183183 152.534530 255.494947 0.000003 -0.000007 -10.352395 -323.679304 -43.014732 -321.845125 0.000002 0.000007 -12.750301 3.667615 178.260233 -160.387267 2.460603 -0.518103 -2.735504 12.986600 -18.750457 -7.715188 -0.000004 0.000004 -17.005901 -226.078865 151.170801 -159.226722 0.000000 0.000007 -19.194395 561.062338 157.924916 184.465391 -3.115492 -0.679594 -2.320299 -17.446463 -16.038604 -4.875071 0.000000 0.000003 -17.680397 -812.532254 151.502817 -213.011020 0.000006 -0.000004 -16.993793 1027.701627 19.611807 -379.108584
-35.709801 29.845604 45.215794 2512.841458 3.824766 1.131530 -0.201598 0.334091 6.453200 -28.208575 13.709839 10.123144 -0.000000 0.000004 3.567993 2.836779 -2.415739 -0.023781 0.000001 -0.000008 8.296396 188.788177 -183.264644 169.275597 0.000005 0.000001 2.173908 1.387568 0.010607 0.652635 1.927602 0.221403 6.049000 -31.157308 8.389125 3.881232 4.959706 -0.000001 0.000007 139.063594 199.757119 120.798179 -0.000002 0.000000 -8.654203 42.827021 -15.091513 18.996003 -0.000002 -0.000009 -13.864104 4069.497960 -164.453292 141.587595 -3.155703 -0.765007 6.687799 33.505227 1.855091 -4.925546 -3.592896 0.000003 0.000010 -203.997219 152.503152 256.115947 0.000000 0.000000 -10.352396 -319.627581 -45.215193 -318.107482 0.000004 0.000011 -12.750299 0.272758 177.078542 -152.548874 2.460605 -0.518107 -2.735506 13.322567 -20.466761 -8.338396 -0.000003 0.000005 -17.005896 -227.359540 149.313263 -157.952141 -0.000007 0.000007 -19.194401 564.944617 158.782405 185.304166 -3.115494 -0.679598 -2.320303 -18.663473 -17.243064 -5.820317 -0.000014 -0.000005 -17.680397 -808.262402 152.615372 -215.251294 0.000007 -0.000003 -16.993795 1024.279319 18.745990 -381.424073
-35.700897 30.088303 45.000893 2513.787412 4.233946 1.354682 -0.201600 0.334100 6.453204 -29.205004 13.331967 9.988369 0.000003 0.000005 3.567997 2.872516 -2.420539 -0.021834 0.000002 -0.000007 8.296400 189.782940 -183.369050 168.929539 0.000001 0.000002 2.173903 1.483271 0.125670 0.754097 1.927604 0.221399 6.049000 -30.699313 7.997001 3.704805 4.959704 0.000004 -0.000006 139.287406 198.967331 122.304373 -0.000004 0.000002 -8.654202 36.440398 -14.437205 17.048077 -0.000001 -0.000007 -13.864096 4075.487107 -165.246906 143.621051 -3.155704 -0.765007 6.687799 33.015755 1.463433 -4.428474 -3.592910 0.000000 0.000009 -203.290062 151.566091 256.242907 0.000001 0.000002 -10.352393 -315.190936 -47.326756 -314.118897 0.000005 0.000004 -12.750300 -3.329086 175.685730 -143.973721 2.460596 -0.518100 -2.735507 13.454444 -21.898698 -9.276440 0.000001 0.000003 -17.005898 -227.483726 147.535201 -157.127272 -0.000004 0.000007 -19.194399 567.992958 159.591236 188.705464 -3.115498 -0.679595 -2.320295 -19.947899 -18.608345 -6.885201 -0.000009 0.000001 -17.680397 -804.493285 153.545917 -217.735666 0.000000 0.000000 -16.993793 1021.553582 17.983880 -383.416139
-35.662701 30.305607 44.805191 2514.345193 4.260255 1.519803 -0.201604 0.334104 6.453206 -29.806092 13.224749 10.125599 -0.000002 0.000003 3.567994 2.892909 -2.466447 -0.025753 0.000001 -0.000005 8.296393 190.740901 -183.588750 168.574437 -0.000003 -0.000001 2.173908 1.551581 0.364841 1.010273 1.927609 0.221399 6.048991 -30.284915 7.657716 3.507723 4.959704 -0.000002 -0.000003 139.618246 198.265584 123.877994 -0.000003 0.000001 -8.654200 28.663278 -13.844868 15.070582 0.000000 -0.000003 -13.864100 4083.389581 -166.018458 146.541108 -3.155703 -0.765003 6.687796 32.534209 1.484833 -4.167604 -3.592902 0.000003 -0.000004 -202.274427 151.172645 256.273807 0.000004 -0.000005 -10.352390 -310.427180 -49.175528 -309.692743 0.000003 0.000004 -12.750297 -7.516008 175.682192 -138.501114 2.460598 -0.518098 -2.735502 12.503733 -22.211343 -10.800156 -0.000002 0.000000 -17.005890 -227.156218 146.819219 -156.467094 0.000001 0.000000 -19.194399 572.194399 159.212365 188.735107 -3.115494 -0.679592 -2.320301 -21.212023 -19.700101 -7.757643 0.000001 0.000002 -17.680401 -800.503799 154.773876 -220.303107 0.000008 0.000003 -16.993793 1019.094058 17.395614 -385.152100
-35.603199 30.500504 44.630291 2514.736426 4.102644 1.606945 -0.201596 0.334095 6.453197 -30.318479 13.191142 10.400767 -0.000002 -0.000004 3.567997 2.922509 -2.517956 -0.028950 0.000005 -0.000003 8.296398 191.768489 -183.862040 168.151744 -0.000001 0.000005 2.173896 1.408960 0.612804 1.243443 1.927602 0.221395 6.048992 -29.748206 7.156550 3.255177 4.959699 0.000004 -0.000005 139.865185 197.212642 125.733250 -0.000002 0.000006 -8.654201 18.812363 -13.588632 12.705668 -0.000001 0.000000 -13.864101 4093.752672 -166.391249 150.706676 -3.155696 -0.765010 6.687795 32.178940 1.039314 -3.821876 -3.592907 0.000003 0.000003 -201.251551 151.004459 256.447512 -0.000007 -0.000004 -10.352386 -304.912267 -50.904823 -305.113566 0.000007 -0.000006 -12.750303 -12.565864 174.309556 -132.157125 2.460604 -0.518102 -2.735507 11.186971 -21.870921 -12.562257 0.000000 0.000002 -17.005898 -226.184255 146.720222 -156.208284 -0.000005 0.000004 -19.194405 575.627033 158.768594 188.866410 -3.115493 -0.679602 -2.320312 -22.180423 -20.665560 -8.283748 -0.000012 0.000000 -17.680399 -797.491358 155.922072 -222.618473 0.000007 -0.000012 -16.993795 1017.409242 16.939588 -386.278534
